<?xml version="1.0" standalone="no"?>
<!DOCTYPE svg PUBLIC "-//W3C//DTD SVG 20010904//EN"
 "http://www.w3.org/TR/2001/REC-SVG-20010904/DTD/svg10.dtd">
<svg version="1.0" xmlns="http://www.w3.org/2000/svg"
 width="512.000000pt" height="512.000000pt" viewBox="0 0 512.000000 512.000000"
 preserveAspectRatio="xMidYMid meet">
<metadata>
Created by potrace 1.11, written by Peter Selinger 2001-2013
</metadata>
<g transform="translate(0.000000,512.000000) scale(0.100000,-0.100000)"
fill="#000000" stroke="none">
<path d="M2069 5090 c-242 -58 -481 -162 -680 -296 -318 -214 -549 -480 -718
-828 -127 -260 -191 -508 -207 -803 l-7 -123 2093 0 2093 0 -6 123 c-16 291
-80 539 -207 802 -167 346 -399 614 -719 829 -268 180 -664 326 -885 326 -83
0 -95 -10 -43 -36 62 -32 193 -119 272 -180 239 -186 427 -451 514 -724 61
-192 65 -258 19 -274 -39 -14 -64 13 -79 83 -90 444 -395 814 -852 1037 -50
24 -98 44 -108 44 -10 0 -66 -25 -126 -54 -442 -223 -732 -576 -827 -1008 -22
-101 -46 -125 -97 -98 -25 14 -25 51 1 156 97 408 351 741 745 975 58 34 105
66 105 71 0 19 -168 6 -281 -22z"/>
<path d="M189 2916 c-71 -25 -138 -98 -159 -175 -33 -120 37 -256 157 -301 54
-20 58 -20 2381 -18 l2327 3 40 22 c92 49 139 127 140 228 0 103 -48 183 -138
232 -30 17 -156 18 -2372 20 -1906 2 -2347 0 -2376 -11z"/>
<path d="M237 2313 c-4 -3 -7 -66 -7 -140 0 -129 1 -134 23 -143 12 -5 155
-52 317 -105 l295 -95 29 -91 c16 -50 53 -140 82 -200 l54 -110 -145 -296
-146 -297 181 -181 180 -180 293 150 292 149 105 -51 c58 -28 148 -65 202 -82
l96 -32 58 -167 c31 -92 79 -228 104 -302 l48 -135 260 -3 260 -2 97 297 c53
164 102 303 108 309 7 7 55 26 107 43 52 17 139 53 192 79 l96 48 297 -144
297 -145 181 181 180 180 -150 293 -150 294 45 89 c25 49 62 139 83 200 l39
111 117 41 c65 22 207 71 316 109 l198 68 -3 131 -3 131 -587 3 -588 2 0 -42
c-1 -134 -55 -359 -117 -483 -134 -269 -392 -491 -671 -579 -240 -75 -479 -74
-714 4 -363 121 -641 420 -739 795 -11 39 -24 123 -31 188 l-11 117 -582 0
c-320 0 -585 -3 -588 -7z"/>
</g>
</svg>
